<svg xmlns="http://www.w3.org/2000/svg" xmlns:xlink="http://www.w3.org/1999/xlink" viewBox="-8 -8 153.49 145.55"><defs><linearGradient id="a" x1="-706.05" y1="948.81" x2="-733.09" y2="1028.69" gradientTransform="translate(1607.13 -1025.69) scale(1.56)" gradientUnits="userSpaceOnUse"><stop offset="0" stop-color="#114a8b"/><stop offset="1" stop-color="#0669bc"/></linearGradient><linearGradient id="b" x1="-697.61" y1="986.04" x2="-703.86" y2="988.15" gradientTransform="translate(1607.13 -1025.69) scale(1.56)" gradientUnits="userSpaceOnUse"><stop offset="0" stop-opacity="0.3"/><stop offset="0.07" stop-opacity="0.2"/><stop offset="0.32" stop-opacity="0.1"/><stop offset="0.62" stop-opacity="0.05"/><stop offset="1" stop-opacity="0"/></linearGradient><linearGradient id="c" x1="-700.85" y1="946.41" x2="-671.17" y2="1025.49" gradientTransform="translate(1607.13 -1025.69) scale(1.56)" gradientUnits="userSpaceOnUse"><stop offset="0" stop-color="#3ccbf4"/><stop offset="1" stop-color="#2892df"/></linearGradient></defs><title>Microsoft Azure logo - Brandlogos.net</title><path d="M489.09,447.23h40.68L487.54,572.36a6.49,6.49,0,0,1-6.15,4.41H449.73a6.48,6.48,0,0,1-6.14-8.55l39.35-116.59a6.49,6.49,0,0,1,6.15-4.41Z" transform="translate(-443.26 -447.22)" style="fill:url(#a)"/><path d="M548.21,531.16H483.7a3,3,0,0,0-2,5.17L523.11,575a6.52,6.52,0,0,0,4.45,1.75h36.53Z" transform="translate(-443.26 -447.22)" style="fill:#0078d4"/><path d="M489.09,447.23a6.43,6.43,0,0,0-6.16,4.5l-39.29,116.4a6.47,6.47,0,0,0,6.11,8.65h32.48a6.94,6.94,0,0,0,5.33-4.53l7.83-23.09,28,26.1a6.62,6.62,0,0,0,4.17,1.52h36.4l-16-45.62H501.44l28.48-83.94Z" transform="translate(-443.26 -447.22)" style="fill:url(#b)"/><path d="M541.05,451.63a6.48,6.48,0,0,0-6.14-4.41H489.57a6.48,6.48,0,0,1,6.14,4.41l39.35,116.59a6.48,6.48,0,0,1-6.14,8.55h45.34a6.48,6.48,0,0,0,6.14-8.55Z" transform="translate(-443.26 -447.22)" style="fill:url(#c)"/></svg>
