<svg width="24" height="24" viewBox="0 0 24 24" fill="none" xmlns="http://www.w3.org/2000/svg">
  <path d="M4 7.25C4 6.56 4.56 6 5.25 6H17.8C18.86 6 19.43 7.24 18.74 8.04L9.68 18.5H18.75C19.44 18.5 20 19.06 20 19.75C20 20.44 19.44 21 18.75 21H6.2C5.14 21 4.57 19.76 5.26 18.96L14.32 8.5H5.25C4.56 8.5 4 7.94 4 7.25Z" fill="currentColor"/>
  <path d="M6 3.25C6 2.56 6.56 2 7.25 2H18.75C19.44 2 20 2.56 20 3.25C20 3.94 19.44 4.5 18.75 4.5H7.25C6.56 4.5 6 3.94 6 3.25Z" fill="currentColor" fill-opacity="0.45"/>
</svg>
