<svg viewBox="0 0 24 24" fill="none" xmlns="http://www.w3.org/2000/svg">
  <rect width="24" height="24" rx="5.2" fill="#1A3A2A"/>
  <!-- "a" pixel character -->
  <rect x="6" y="4" width="2.6" height="2.6" rx="0.3" fill="#14E050"/>
  <rect x="9" y="4" width="2.6" height="2.6" rx="0.3" fill="#14E050"/>
  <rect x="15" y="7" width="2.6" height="2.6" rx="0.3" fill="#14E050"/>
  <rect x="6" y="10" width="2.6" height="2.6" rx="0.3" fill="#14E050"/>
  <rect x="9" y="10" width="2.6" height="2.6" rx="0.3" fill="#14E050"/>
  <rect x="12" y="10" width="2.6" height="2.6" rx="0.3" fill="#14E050"/>
  <rect x="15" y="10" width="2.6" height="2.6" rx="0.3" fill="#14E050"/>
  <rect x="3" y="13" width="2.6" height="2.6" rx="0.3" fill="#14E050"/>
  <rect x="15" y="13" width="2.6" height="2.6" rx="0.3" fill="#14E050"/>
  <rect x="6" y="16" width="2.6" height="2.6" rx="0.3" fill="#14E050"/>
  <rect x="9" y="16" width="2.6" height="2.6" rx="0.3" fill="#14E050"/>
  <rect x="12" y="16" width="2.6" height="2.6" rx="0.3" fill="#14E050"/>
  <!-- "." period -->
  <rect x="19" y="16" width="2.6" height="2.6" rx="0.3" fill="#14E050"/>
</svg>
