<svg role="img" viewBox="49 42 517 516" xmlns="http://www.w3.org/2000/svg"><defs><linearGradient id="atomGreen" x1="0%" y1="0%" x2="100%" y2="100%"><stop offset="0%" stop-color="#b0e098"/><stop offset="50%" stop-color="#70c485"/><stop offset="100%" stop-color="#04a171"/></linearGradient></defs><circle cx="307.5" cy="299.86" r="258.17" fill="url(#atomGreen)"/><g transform="translate(37.33,410.87)"><path fill="none" stroke="#fff" stroke-width="15" stroke-linecap="round" stroke-miterlimit="4" d="m 375.72,-197.79 c 5.79,-29.55 2.55,-51.98 -11.14,-60.89 -4.56,-2.97 -10.04,-4.27 -16.19,-4.04 -33.25,1.27 -86.91,47.16 -130.75,114.83 -51.96,80.2 -70.42,160.58 -41.21,179.59 13.86,9.03 35.96,2.63 60.92,-15.2"/><path fill="none" stroke="#fff" stroke-width="15" stroke-linecap="round" stroke-miterlimit="4" d="m 402.36,-66.64 c 24.66,-9.59 39.82,-22.72 40.61,-37.79 1.82,-34.86 -73.87,-67.14 -169.13,-72.15 -8.93,-0.47 -17.71,-0.72 -26.3,-0.69 -83.04,0.28 -147.86,23.11 -149.51,54.71 -0.79,15.05 12.89,29.63 36.33,41.74"/><path fill="none" stroke="#fff" stroke-width="15" stroke-linecap="round" stroke-miterlimit="4" d="m 246.94,-249.75 c -16.87,-14.03 -32.7,-21.57 -45.41,-20.61 -3.38,0.25 -6.52,1.09 -9.42,2.58 -31.03,15.85 -21.12,97.82 22.19,183.03 43.31,85.2 103.57,141.42 134.6,125.57 29.84,-15.24 21.79,-91.63 -17.39,-173.23"/><circle cx="270.35" cy="-109.77" r="20.6" fill="#fff"/></g></svg>
