<svg xmlns="http://www.w3.org/2000/svg" viewBox="0 0 24 24"><path fill="#7F5AB6" d="M12 0C5.373 0 0 5.373 0 12s5.373 12 12 12 12-5.373 12-12S18.627 0 12 0zm0 1.846c5.595 0 10.154 4.559 10.154 10.154 0 5.595-4.559 10.154-10.154 10.154-5.595 0-10.154-4.559-10.154-10.154C1.846 6.405 6.405 1.846 12 1.846z"/><path fill="#7F5AB6" d="M8.369 5.538c-1.243 0-2.677 1.2-2.677 3.693 0 3.046 1.98 6.492 3.878 8.592 1.205 1.334 2.088 1.57 2.613 1.57.726 0 1.754-.695 1.754-1.404 0-.417-.152-.532-.655-.532-.534 0-1.415.353-2.141.353-.84 0-1.605-1.088-2.066-1.86-.578-.966-.91-2.112-1.12-3.423h4.116c.202 0 .477-.273.477-.582 0-.23-.13-.477-.477-.477H7.866c-.054-.494-.12-1.243-.12-2.124 0-1.28.28-2.415 1.066-2.415.51 0 .874.66 1.285 1.412.411.752.922 1.595 1.825 1.595.52 0 .912-.343.912-.757 0-.738-1.26-3.641-4.465-3.641z"/></svg>
