<svg xmlns="http://www.w3.org/2000/svg" viewBox="0 0 24 24"><defs><linearGradient id="jb-a" x1="0%" y1="50%" x2="100%" y2="50%"><stop offset="0%" stop-color="#F97A12"/><stop offset="100%" stop-color="#B07B58"/></linearGradient><linearGradient id="jb-b" x1="0%" y1="0%" x2="100%" y2="100%"><stop offset="0%" stop-color="#F97A12"/><stop offset="50%" stop-color="#E33B98"/><stop offset="100%" stop-color="#B07B58"/></linearGradient></defs><rect fill="#000" width="20" height="20" x="2" y="2" rx="2"/><rect fill="#FFF" width="7" height="1.5" x="4.5" y="18.5"/><path fill="#FFF" d="M4 8.014h3.19c1.672 0 2.702.927 2.702 2.329v.025c0 1.562-1.27 2.39-2.854 2.39H5.634v2.456H4V8.014zm3.063 3.37c.736 0 1.17-.435 1.17-1.003v-.025c0-.663-.46-1.003-1.196-1.003H5.634v2.03h1.429zM10.6 13.652l1.086-.88c.636.753 1.271 1.168 2.104 1.168.663 0 1.1-.307 1.1-.776v-.025c0-.434-.254-.676-1.538-1.003-1.5-.397-2.389-.851-2.389-2.39v-.024c0-1.41 1.15-2.355 2.753-2.355 1.15 0 2.104.357 2.893 1.023l-.97.944c-.611-.536-1.218-.841-1.944-.841-.636 0-1.017.333-1.017.728v.025c0 .511.306.702 1.63 1.042 1.525.396 2.296.96 2.296 2.338v.025c0 1.538-1.195 2.424-2.88 2.424-1.194 0-2.37-.434-3.124-1.423z"/></svg>
