<svg xmlns="http://www.w3.org/2000/svg" viewBox="0 0 24 24" fill="#019833"><path d="M24 12.02l-1.193-1.2v-.468l-1.03-1.14-.027-4.147L20.07 3.46l-.626-.063-.2-1.886-1.394-1.27-1.005.254-.084.807-2.108.753-1.874.008v.833L11.107 4.57l-.536.233-7.283 7.315 2.199 2.295.087-.09 2.89 2.862.003.317-.57.546 4.239 4.014.528-.2v-.07l2.182 2.038.136-.073.504.473.595-.319L24 16.095v-4.074zM.386 12.014l3.927-3.986v7.965zm7.577 2.394l2.659 2.655-2.665.007zm3.37 3.292L9.58 15.938l1.453-1.467.3-.031zM14.64 3.19l.502 4.782-4.078-.016-.273-.773-3.476 3.508 3.183 3.16-.283 1.478-1.653 1.727 3.258 3.289-.408.32.07.072-1.37.52-1.873-1.758-4.104-4.018.588-.555v-.394l-2.886-2.87-.079.082-.81-.849 7.145-7.14zm-1.4 14.674l.578-.318L15.62 19.3l-.24.128zm-.852-.424l-.32-.302.396-.152zm5.214-2.757l-2.496 1.338-1.593-1.498.13-.073-.593-.555.38-.354-.398-.413.84-.862.02-1.074-1.167-.01-.47.472-.93-.942 3.917-3.997 2.36.015zm.6-.287V7.852l2.174 2.4v3.733zm2.67-4.227l-2.194-2.425-.017-3.14.77.072v-.082l1.441.8z"/></svg>
