<svg viewBox="1 3 31 26" fill="none" xmlns="http://www.w3.org/2000/svg">
  <path d="M16.9508 16.5619L17.0173 16.4982C17.0615 16.4556 17.1055 16.4127 17.1492 16.3695L17.2384 16.2813L17.5093 16.0137L17.8769 15.6505L18.1927 15.3384L18.4893 15.0453L18.7988 14.7395L19.0827 14.459L19.478 14.0684C19.5532 13.9947 19.6297 13.9223 19.7074 13.8512C19.8508 13.7201 19.9983 13.5938 20.1501 13.4721C20.2891 13.3605 20.4315 13.2532 20.5772 13.1499C20.7813 13.0053 20.9915 12.8692 21.2079 12.7416C21.4195 12.6169 21.6365 12.5008 21.8589 12.3933C22.0677 12.2924 22.2809 12.1996 22.4984 12.1147C22.6196 12.0675 22.7421 12.0229 22.8658 11.9808C22.9277 11.9598 22.9899 11.9394 23.0525 11.9197C22.5039 9.76089 21.499 7.74477 20.1055 6.00713C19.9723 5.84151 19.8036 5.70792 19.6119 5.61623C19.4201 5.52455 19.2103 5.47711 18.9977 5.47742L7.61416 5.47729C7.56922 5.47726 7.52542 5.49145 7.48903 5.51783C7.45265 5.54421 7.42555 5.58144 7.41161 5.62416C7.39768 5.66689 7.39763 5.71293 7.41146 5.75569C7.42529 5.79845 7.45231 5.83574 7.48863 5.8622C11.3746 8.71031 14.5944 12.3696 16.925 16.5864L16.9508 16.5619Z" fill="#00D6B9"/>
  <path d="M29.7006 12.4233C27.7171 11.4515 25.4452 11.244 23.3184 11.8404C23.2292 11.8655 23.1405 11.8919 23.0524 11.9197C22.9899 11.9394 22.9277 11.9598 22.8657 11.9809C22.742 12.0229 22.6196 12.0675 22.4984 12.1148C22.281 12.1995 22.0678 12.2924 21.8589 12.3933C21.6366 12.5007 21.4196 12.6168 21.2079 12.7417C20.9917 12.8691 20.7815 13.0052 20.5772 13.15C20.4315 13.2532 20.2892 13.3605 20.1501 13.4721C19.9984 13.5937 19.8508 13.7201 19.7074 13.8513C19.6297 13.9223 19.5532 13.9947 19.478 14.0685L19.0827 14.4591L18.7988 14.7396L18.4893 15.0454L18.1927 15.3385L17.8768 15.6506L17.5092 16.0138L17.2384 16.2814L17.1491 16.3696C17.1054 16.4127 17.0615 16.4556 17.0173 16.4982L16.9508 16.562C16.9175 16.5938 16.884 16.6254 16.8504 16.6569C16.8133 16.6916 16.776 16.7262 16.7385 16.7607C15.7597 17.66 14.6705 18.4313 13.4971 19.0559C13.5671 19.0889 13.6374 19.1217 13.7077 19.1543C13.7634 19.1801 13.8191 19.2057 13.8749 19.2312C13.9288 19.2557 13.9828 19.2802 14.0369 19.3046C14.0901 19.3285 14.1435 19.3523 14.1969 19.376C14.2552 19.4019 14.3137 19.4276 14.3722 19.4532C14.4397 19.4826 14.5072 19.5119 14.5749 19.5409C14.6397 19.5687 14.7046 19.5963 14.7696 19.6236C14.8537 19.6591 14.9381 19.6942 15.0226 19.7291C15.0905 19.757 15.1585 19.7847 15.2266 19.8123C15.3313 19.8546 15.4363 19.8964 15.5416 19.9377C15.6409 19.9767 15.7404 20.0152 15.8403 20.0533C15.9148 20.0818 15.9895 20.11 16.0644 20.1379C16.193 20.186 16.3221 20.2333 16.4516 20.2799C16.517 20.3034 16.5824 20.3268 16.648 20.3499C16.7395 20.3822 16.8313 20.4142 16.9233 20.4458C16.9989 20.4717 17.0746 20.4974 17.1505 20.5229C17.2613 20.5601 17.3725 20.5967 17.484 20.6329C17.601 20.6708 17.7184 20.7082 17.8361 20.745C17.9798 20.7899 18.1239 20.8339 18.2686 20.877C18.3651 20.9058 18.4619 20.9342 18.559 20.9622C18.7534 21.0184 18.9487 21.073 19.1449 21.126C19.2154 21.145 19.2858 21.1629 19.3562 21.1797C19.49 21.2116 19.6234 21.2394 19.7565 21.263C19.9097 21.2903 20.0622 21.3122 20.2141 21.3288C20.4212 21.3515 20.6268 21.3644 20.8308 21.3676C21.017 21.3705 21.2016 21.3655 21.3844 21.3526C21.5587 21.3403 21.7312 21.3209 21.9018 21.2944C22.1368 21.258 22.3695 21.208 22.5987 21.1445C22.7523 21.1019 22.9035 21.0534 23.0525 20.9991C23.1903 20.9488 23.3259 20.8936 23.4593 20.8335C23.613 20.7642 23.7635 20.6885 23.9109 20.6063C23.9833 20.5659 24.0549 20.524 24.1257 20.4806C24.1937 20.4388 24.2609 20.3957 24.3272 20.3512C24.432 20.2809 24.5347 20.2072 24.6352 20.13C24.7211 20.0642 24.8054 19.9958 24.888 19.925C25.0366 19.7977 25.1795 19.6626 25.3169 19.5197C25.3843 19.4494 25.4503 19.3774 25.5149 19.3034C25.5966 19.2099 25.6759 19.1134 25.7528 19.0141C25.814 18.9348 25.8737 18.8538 25.9317 18.771C26.0955 18.5368 26.2439 18.2923 26.3761 18.0389L26.5284 17.7351L27.9046 14.9917L27.9023 14.9973C28.3405 14.0373 28.9499 13.165 29.7006 12.4233Z" fill="#133C9A"/>
  <path d="M12.4363 26.5826C15.2248 26.5836 17.9629 25.8387 20.3666 24.4252C22.7703 23.0117 24.7523 20.981 26.1069 18.5437C26.2007 18.3753 26.2915 18.2051 26.3792 18.0329C26.2462 18.2884 26.0967 18.5348 25.9316 18.7708C25.8736 18.8537 25.8139 18.9347 25.7526 19.0139C25.6758 19.1132 25.5965 19.2097 25.5147 19.3033C25.4502 19.3772 25.3842 19.4493 25.3167 19.5195C25.1795 19.6624 25.0365 19.7975 24.8878 19.9249C24.8052 19.9957 24.721 20.064 24.6351 20.1299C24.5345 20.207 24.4319 20.2807 24.3271 20.351C24.2607 20.3955 24.1935 20.4387 24.1255 20.4804C24.0548 20.5238 23.9832 20.5658 23.9107 20.6062C23.7634 20.6883 23.6129 20.764 23.4591 20.8333C23.3258 20.8935 23.1902 20.9487 23.0524 20.9989C22.9035 21.0533 22.7522 21.1017 22.5986 21.1443C22.3694 21.2078 22.1367 21.2579 21.9017 21.2943C21.7311 21.3207 21.5587 21.3401 21.3842 21.3524C21.2015 21.3653 21.017 21.3703 20.8307 21.3674C20.6268 21.3642 20.4212 21.3513 20.2139 21.3287C20.0621 21.3121 19.9095 21.2901 19.7563 21.2629C19.6233 21.2392 19.4898 21.2114 19.356 21.1795C19.2857 21.1628 19.2152 21.1449 19.1447 21.1258C18.9485 21.0728 18.7532 21.0182 18.5588 20.9621C18.4618 20.9341 18.365 20.9057 18.2684 20.8768C18.1237 20.8337 17.9796 20.7897 17.836 20.7448C17.7182 20.708 17.6009 20.6707 17.4838 20.6327C17.3723 20.5966 17.2612 20.5599 17.1503 20.5227C17.0744 20.4973 16.9987 20.4716 16.9231 20.4456C16.8311 20.414 16.7393 20.3821 16.6478 20.3498C16.5822 20.3266 16.5168 20.3033 16.4514 20.2798C16.3219 20.2332 16.1928 20.1858 16.0642 20.1378C15.9893 20.1098 15.9146 20.0816 15.8401 20.0532C15.7403 20.0151 15.6407 19.9765 15.5414 19.9376C15.4361 19.8962 15.3311 19.8544 15.2264 19.8121C15.1583 19.7846 15.0903 19.7569 15.0224 19.7289C14.9379 19.6941 14.8535 19.659 14.7694 19.6235C14.7043 19.5961 14.6395 19.5685 14.5747 19.5408C14.507 19.5117 14.4395 19.4825 14.372 19.453C14.3135 19.4275 14.255 19.4017 14.1967 19.3759C14.1433 19.3522 14.0899 19.3284 14.0367 19.3044C13.9826 19.2801 13.9286 19.2556 13.8747 19.231C13.8188 19.2055 13.7631 19.1799 13.7075 19.1542C13.6371 19.1216 13.5669 19.0888 13.4968 19.0557C13.4233 19.021 13.35 18.9861 13.2768 18.951C13.1983 18.9133 13.12 18.8753 13.0419 18.837C12.9753 18.8043 12.9089 18.7714 12.8425 18.7384C9.34942 16.9956 6.19515 14.6438 3.5279 11.7934C3.49868 11.7622 3.46077 11.7406 3.41908 11.7312C3.3774 11.7219 3.33387 11.7253 3.29415 11.741C3.25444 11.7568 3.22038 11.7841 3.19639 11.8194C3.17241 11.8548 3.15961 11.8965 3.15967 11.9393L3.16533 21.9846V22.7996C3.16467 23.0328 3.22163 23.2625 3.33115 23.4683C3.44067 23.6742 3.59936 23.8498 3.79311 23.9795C6.3538 25.6817 9.36125 26.5875 12.4361 26.5825" fill="#3370FF"/>
</svg>
