<svg viewBox="0 0 24 24" fill="#07C160" xmlns="http://www.w3.org/2000/svg">
  <path d="M8.691 2.188C3.891 2.188 0 5.476 0 9.53c0 2.212 1.17 4.203 3.002 5.55a.59.59 0 0 1 .213.665l-.39 1.48c-.019.07-.048.141-.048.213 0 .163.13.295.29.295a.326.326 0 0 0 .167-.054l1.903-1.114a.864.864 0 0 1 .717-.098 10.16 10.16 0 0 0 2.837.403c.276 0 .543-.027.811-.05a6.127 6.127 0 0 1-.261-1.779c0-3.558 3.2-6.44 7.147-6.44.253 0 .498.023.742.044C16.18 4.33 12.741 2.188 8.691 2.188zm-2.6 4.408a1.07 1.07 0 0 1 1.073 1.073 1.07 1.07 0 0 1-1.073 1.073 1.07 1.07 0 0 1-1.073-1.073 1.07 1.07 0 0 1 1.073-1.073zm5.2 0a1.07 1.07 0 0 1 1.073 1.073 1.07 1.07 0 0 1-1.073 1.073 1.07 1.07 0 0 1-1.073-1.073 1.07 1.07 0 0 1 1.073-1.073zM16.4 9.6c-3.484 0-6.313 2.505-6.313 5.593 0 3.09 2.829 5.594 6.313 5.594a7.62 7.62 0 0 0 2.417-.39.67.67 0 0 1 .558.076l1.53.895a.26.26 0 0 0 .133.043.232.232 0 0 0 .232-.232c0-.058-.023-.114-.039-.17l-.313-1.19a.47.47 0 0 1 .171-.533C22.936 18.188 24 16.43 24 14.493c-.7-2.388-3.529-4.893-7.6-4.893zm-2.136 3.466a.883.883 0 0 1 .884.884.883.883 0 0 1-.884.884.883.883 0 0 1-.884-.884.883.883 0 0 1 .884-.884zm4.273 0a.883.883 0 0 1 .884.884.883.883 0 0 1-.884.884.883.883 0 0 1-.884-.884.883.883 0 0 1 .884-.884z"/>
</svg>
