<?xml version="1.0" encoding="UTF-8"?><svg id="uuid-57fab9e0-37dc-4819-9c8e-6a80afb375e1" xmlns="http://www.w3.org/2000/svg" xmlns:xlink="http://www.w3.org/1999/xlink" viewBox="0 0 108.98 111.93">
<title>Supabase icon logo - Brandlogos.net</title><defs><linearGradient id="uuid-2930c594-ddca-46bf-b0d2-80d52c3e96d7" x1="50.32" y1="50.51" x2="90.51" y2="33.65" gradientTransform="translate(0 113.93) scale(1 -1)" gradientUnits="userSpaceOnUse"><stop offset="0" stop-color="#249361"/><stop offset="1" stop-color="#3ecf8e"/></linearGradient><linearGradient id="uuid-240d1652-c2ac-46f3-939e-2bb8f7ef218b" x1="52.24" y1="92.12" x2="70.57" y2="57.62" gradientTransform="translate(0 113.93) scale(1 -1)" gradientUnits="userSpaceOnUse"><stop offset="0" stop-color="#000"/><stop offset="1" stop-color="#000" stop-opacity="0"/></linearGradient></defs><path d="M63.68,110.07c-2.86,3.6-8.66,1.63-8.73-2.97l-1.01-67.25h45.22c8.19,0,12.76,9.46,7.67,15.87l-43.15,54.35Z" style="fill:url(#uuid-2930c594-ddca-46bf-b0d2-80d52c3e96d7);"/><path d="M63.68,110.07c-2.86,3.6-8.66,1.63-8.73-2.97l-1.01-67.25h45.22c8.19,0,12.76,9.46,7.67,15.87l-43.15,54.35Z" style="fill:url(#uuid-240d1652-c2ac-46f3-939e-2bb8f7ef218b); fill-opacity:.2;"/><path d="M45.29,1.86c2.86-3.6,8.66-1.63,8.73,2.97l.44,67.25H9.81c-8.19,0-12.76-9.46-7.67-15.87L45.29,1.86Z" style="fill:#3ecf8e;"/></svg>